/* XPM */
static char * pacman_xpm[] = {
"14 14 2 1",
" 	c None",
".	c #7F9F7F",
"              ",
"              ",
"              ",
"     ....     ",
"    ... ..    ",
"   ...  ...   ",
"   ........   ",
"   ...        ",
"   .....      ",
"    ......    ",
"     ....     ",
"              ",
"              ",
"              "};
