/* XPM */
static char * rss_xpm[] = {
"14 14 2 1",
" 	c None",
".	c #7F9F7F",
"              ",
"              ",
"              ",
"   ........   ",
"   .      .   ",
"   . .... .   ",
"   .    . .   ",
"   . .. . .   ",
"   . .. . .   ",
"   .      .   ",
"   ........   ",
"              ",
"              ",
"              "};
